<?xml version="1.0" encoding="utf-8"?>
<svg xmlns="http://www.w3.org/2000/svg" viewBox="59.4966 89.6862 393.0069 332.6276" width="614.073px" height="519.731px" preserveAspectRatio="none"><g transform="matrix(1, 0, 0, 1, 3.4259110007570968, -3.9815600511663973)" id="object-1"><ellipse style="stroke: rgb(0, 0, 0); fill: rgb(99, 102, 241); stroke-width: 0px; stroke-dashoffset: -19px; fill-opacity: 0.11; transform-box: fill-box; transform-origin: 50% 50%;" cx="125.731" cy="105.327" rx="40.142" ry="40.157" transform="matrix(0.998887, 0.047159, -0.047159, 0.998887, -20.571933, 30.346125)"/><ellipse style="stroke: rgb(0, 0, 0); fill: rgb(99, 102, 241); stroke-width: 0; stroke-dashoffset: -19px; fill-opacity: 0.11;" cx="339.848" cy="314.841" rx="94.898" ry="96.076" id="object-0"/><g id="svg-1" transform="matrix(1.150427, 0, 0, 1.150427, -444.249732, -75.757165)" style=""><title>computer</title><g><g transform="matrix(0.531047, 0, 0, 0.53185, 477.967231, 134.951723)" style=""><g style="" transform="matrix(0.539646, 0, 0, 0.488792, 119.221147, 130.869204)"><g><path d="M501.333,0c-25.109,0-57.024,16.128-66.475,21.205L298.667,0.363c-19.136,0-65.323,1.237-80.299,12.267L133.035,65.6 c-4.053,2.517-5.931,7.403-4.629,11.989c1.323,4.587,5.504,7.744,10.261,7.744h96c0.853,0,1.685-0.107,2.517-0.256l14.293-3.52 c9.237-1.344,18.453,1.408,25.472,7.488c7.04,6.08,11.051,14.891,11.051,24.192c0,7.403-2.304,14.464-6.677,20.459 l-33.557,46.101c-9.365,14.037-7.509,32.896,4.437,44.843c6.933,6.912,16.021,10.389,25.131,10.389s18.197-3.477,25.131-10.411 l54.08-54.08c20.203-1.131,38.677-9.856,52.373-23.936c18.944,17.557,79.573,23.125,91.584,24.043 c0.277,0.021,0.555,0.021,0.832,0.021c2.667,0,5.269-1.003,7.232-2.837c2.197-2.027,3.435-4.864,3.435-7.829V10.667 C512,4.779,507.221,0,501.333,0z M416.043,71.296l-12.309,46.699c-10.112,19.349-29.845,31.339-51.733,31.339 c-2.837,0-5.547,1.109-7.552,3.115l-57.088,57.088c-5.355,5.355-14.72,5.355-20.075,0c-4.779-4.757-5.525-12.309-2.027-17.557 l33.323-45.739c7.04-9.664,10.752-21.099,10.752-33.045c0-15.467-6.699-30.165-18.389-40.299 c-9.664-8.363-21.888-12.928-35.029-12.928c-2.773,0-5.611,0.213-8.448,0.619L233.408,64h-57.344l54.251-33.707 c6.677-4.907,36.053-8.597,66.731-8.725l126.528,19.477C421.504,48.448,418.816,58.901,416.043,71.296z M490.667,148.267 c-23.061-2.603-51.392-7.915-63.467-14.635c2.133-20.736,5.888-40.832,9.6-57.429l9.771-37.077 c9.856-5.184,28.224-13.611,44.096-16.661V148.267z" style="paint-order: stroke; stroke: rgb(185, 98, 180); fill: rgb(193, 194, 249);"/><path d="M405.163,392.917l-21.333-128c-0.853-5.141-5.291-8.917-10.517-8.917H320c0-5.888-4.779-10.667-10.667-10.667 s-10.667,4.779-10.667,10.667v10.56c0,0.043-0.021,0.064-0.021,0.107s0.021,0.064,0.021,0.107V320h-192V128H256 c5.888,0,10.667-4.779,10.667-10.667s-4.779-10.667-10.667-10.667H96c-5.888,0-10.667,4.779-10.667,10.667V256H32 c-5.205,0-9.664,3.776-10.517,8.917l-21.333,128c-0.043,0.277,0.064,0.533,0.043,0.789C0.171,394.048,0,394.325,0,394.667 v106.667C0,507.221,4.779,512,10.667,512h384c5.888,0,10.667-4.779,10.667-10.667V394.667c0-0.363-0.171-0.683-0.213-1.024 C405.099,393.387,405.205,393.152,405.163,392.917z M41.024,277.333h44.309V320H74.667C68.779,320,64,324.779,64,330.667 s4.779,10.667,10.667,10.667h256c5.888,0,10.667-4.779,10.667-10.667S336.555,320,330.667,320H320v-42.667h44.288L382.059,384 H23.253L41.024,277.333z M384,490.667H21.333v-85.333H384V490.667z" style="paint-order: stroke; stroke: rgb(185, 98, 180); fill: rgb(193, 194, 249);"/></g></g></g><path d="M 757.958 151.497 L 757.958 151.07 L 453.033 151.07 L 453.033 151.497 C 443.434 152.436 435.839 160.031 434.9 169.63 L 434.9 370.021 C 434.881 373.546 435.814 377.01 437.602 380.048 C 440.903 386.536 447.68 390.508 454.953 390.217 L 564.749 390.217 L 564.749 417.95 L 543.842 417.95 C 536.753 418.574 532.998 426.637 537.082 432.465 C 538.649 434.7 541.123 436.129 543.842 436.368 L 667.149 436.368 C 674.238 436.991 679.344 429.707 676.339 423.256 C 674.697 419.73 671.023 417.609 667.149 417.95 L 646.242 417.95 L 646.242 390.217 L 756.251 390.217 C 763.546 390.518 770.348 386.547 773.673 380.048 C 775.461 377.003 776.441 373.551 776.518 370.021 L 776.518 169.63 C 775.385 159.963 767.648 152.404 757.958 151.497 Z M 757.958 171.194 L 757.958 370.021 C 757.958 371.159 757.46 371.657 756.251 371.657 L 454.669 371.657 C 453.531 371.657 453.033 371.159 453.033 370.021 L 453.033 169.63 L 757.958 169.63 L 757.958 171.266 L 757.958 171.194 Z" style="stroke-width: 7.111; fill: rgb(99, 102, 241);"/></g></g></g></svg>