<?xml version="1.0" encoding="utf-8"?>
<svg width="500" height="480" viewBox="0 0 500 480" fill="none" xmlns="http://www.w3.org/2000/svg" xmlns:bx="https://boxy-svg.com"><rect width="500" height="480" rx="2" fill="white"/><rect x="35" y="117" width="225" height="156" fill="url(#paint0_linear_1028_964)"/><line x1="35" y1="80.5" x2="465" y2="80.5" stroke="#DCE1F1"/><rect x="290" y="117" width="175" height="156" rx="2" fill="#EAEFF7"/><rect x="35" y="303" width="430" height="142" rx="2" fill="#E9EEF6"/><rect x="194" y="353" width="229" height="8" rx="2" fill="white"/><rect x="194" y="370" width="152" height="8" rx="2" fill="white"/><rect x="194" y="387" width="187" height="8" rx="2" fill="white"/><rect x="59" y="324" width="100" height="100" rx="2" fill="white"/><rect x="138" y="35" width="327" height="18" rx="2" fill="#E7ECF5"/><circle cx="39.2391" cy="44.2391" r="4.23913" fill="#FA584E"/><circle cx="54.5" cy="44.2391" r="4.23913" fill="#FBB527"/><circle cx="69.7609" cy="44.2391" r="4.23913" fill="#32C133"/><path d="M342.034 231.847C324.964 262.749 277.939 313.186 226.394 267.718" stroke="url(#paint2_linear_1028_964)" stroke-linecap="round" stroke-linejoin="round" stroke-dasharray="2 2"/><path d="M339.077 230.867L343.973 228.971L344.562 233.656" stroke="url(#paint3_linear_1028_964)" stroke-linecap="round" stroke-linejoin="round" stroke-dasharray="2 2"/><g transform="matrix(0.577157, 0, 0, 0.577157, 328.757726, 136.124148)" style=""><path d="M195.767,66.465c-0.761-1.838-2.221-3.298-4.059-4.059L63.483,9.295c-3.824-1.583-8.214,0.232-9.799,4.059L0.571,141.58 c-0.762,1.838-0.762,3.902,0,5.74c0.761,1.838,2.221,3.298,4.059,4.059l86.104,35.665c0.919,0.38,1.895,0.571,2.87,0.571 c0.976,0,1.951-0.19,2.87-0.571l59.566-24.676c1.838-0.761,3.298-2.221,4.059-4.059l35.667-86.105 C196.528,70.368,196.528,68.303,195.767,66.465z M107.464,166.256l7.647-18.463l18.462,7.647L107.464,166.256z M149.112,145.639 l-35.19-14.575c-3.823-1.583-8.214,0.232-9.799,4.059l-14.577,35.193l-72.248-29.925L64.672,26.023l114.367,47.371L149.112,145.639 z" style="fill: rgb(99, 102, 241);"/><polygon points="133.374,98.043 127.632,84.186 89.229,100.098 82.708,84.358 68.851,90.098 81.111,119.697 &#9;" style="fill: rgb(99, 102, 241);"/></g><defs><linearGradient id="paint0_linear_1028_964" x1="434.5" y1="210" x2="48.2226" y2="58.8072" gradientUnits="userSpaceOnUse"><stop stop-color="white" stop-opacity="0"/><stop offset="1" stop-color="#F0F2F9"/></linearGradient><linearGradient id="paint2_linear_1028_964" x1="358.554" y1="226.723" x2="242.956" y2="282.349" gradientUnits="userSpaceOnUse"><stop stop-color="white" stop-opacity="0.48"/><stop offset="1" stop-color="white" stop-opacity="0"/></linearGradient><linearGradient id="paint3_linear_1028_964" x1="343.992" y1="228.548" x2="340.23" y2="234.571" gradientUnits="userSpaceOnUse"><stop stop-color="white" stop-opacity="0.48"/><stop offset="1" stop-color="white" stop-opacity="0"/></linearGradient><bx:export><bx:file format="svg"/></bx:export></defs></svg>